<svg width="1764" height="1351" viewBox="0 0 1764 1351" xmlns="http://www.w3.org/2000/svg"><title>bg</title><g fill="none" fill-rule="evenodd"><circle stroke="#FAFAFA" stroke-width="2" cx="197.5" cy="87.5" r="9.5"/><circle stroke="#FAFAFA" stroke-width="2" cx="246" cy="383.823" r="38"/><circle stroke="#FAFAFA" stroke-width="2" cx="1686" cy="293" r="38"/><path fill="#FAE16A" d="M150.236 124.06L82 84.814l28.99-28.992zM1380.93 186.978l-42.93-23.85 19.08-19.08z"/><path stroke="#49EEFD" stroke-width="2" d="M46.173 189.575l63.806-12.402 12.4 63.806-63.805 12.4zM1302.928 56.236l33.796 9.69-9.69 33.797-33.797-9.69zM1445.173 63.62l63.805-12.4 12.403 63.805-63.805 12.402z"/><path stroke="#FB655E" stroke-width="6" d="M1619.3 141.098l69.632 40.202-40.202 69.632-69.632-40.202z"/><path stroke="#FB655E" stroke-width="3" d="M368.873 227.668l38.58-11.795 11.794 38.58-38.58 11.794z"/><path d="M215.793 289.612L150.29 407.78l91.836-26.333-26.333-91.835z" stroke="#FB655E" stroke-width="6"/><path fill="#CE5D5C" d="M320.757 89.06l-24.276 22.275 32.924 2.568 25.575-21.41z"/><path fill="#E27876" d="M339.994 152.81l26.16-24.434-11.18-35.89-25.57 21.41z"/><path fill="#FACDCB" d="M296.48 111.333l9.733 36.62 33.782 4.854-10.587-38.907z"/><g><path fill="#8DD1A8" d="M1661.292 404.536l-22.428-3.737 12.592 18.995 22.51 4.81z"/><path fill="#65A87F" d="M1634.797 442.085l24.403 3.845 14.768-21.33-22.51-4.808z"/><path fill="#B5DFC5" d="M1638.865 400.798l-15.78 20.85 11.713 20.436 16.66-22.29z"/></g></g></svg>